<mxfile host="app.diagrams.net" modified="2022-02-10T14:35:29.501Z" agent="5.0 (Windows)" etag="bpqYryMg66FCbAZ_yV-R" version="16.5.4" type="github">
  <diagram id="uy5lw_yQ_hJl8o4zhd7S" name="Page-1">
    <mxGraphModel dx="1038" dy="536" grid="1" gridSize="10" guides="1" tooltips="1" connect="1" arrows="1" fold="1" page="1" pageScale="1" pageWidth="827" pageHeight="1169" math="0" shadow="0">
      <root>
        <mxCell id="0" />
        <mxCell id="1" parent="0" />
        <mxCell id="Z8Iofc_2LT_SBN_8rFr_-6" value="" style="rounded=1;arcSize=10;dashed=0;fillColor=none;gradientColor=none;strokeWidth=2;shadow=1;glass=0;labelBackgroundColor=none;sketch=0;fontColor=#46A652;" vertex="1" parent="1">
          <mxGeometry x="10" y="170" width="810" height="890" as="geometry" />
        </mxCell>
        <mxCell id="RZWfU97EguXZhOJXuSMn-3" value="VPC" style="sketch=0;outlineConnect=0;gradientColor=none;html=1;whiteSpace=wrap;fontSize=12;fontStyle=2;shape=mxgraph.aws4.group;grIcon=mxgraph.aws4.group_vpc;strokeColor=#879196;fillColor=none;verticalAlign=top;align=left;spacingLeft=30;fontColor=#879196;dashed=1;" parent="1" vertex="1">
          <mxGeometry x="30" y="320" width="773" height="570" as="geometry" />
        </mxCell>
        <mxCell id="RZWfU97EguXZhOJXuSMn-1" value="idpprod01" style="points=[[0,0],[0.25,0],[0.5,0],[0.75,0],[1,0],[1,0.25],[1,0.5],[1,0.75],[1,1],[0.75,1],[0.5,1],[0.25,1],[0,1],[0,0.75],[0,0.5],[0,0.25]];outlineConnect=0;gradientColor=none;html=1;whiteSpace=wrap;fontSize=12;fontStyle=2;container=1;pointerEvents=0;collapsible=0;recursiveResize=0;shape=mxgraph.aws4.group;grIcon=mxgraph.aws4.group_ec2_instance_contents;strokeColor=#D86613;fillColor=none;verticalAlign=top;align=left;spacingLeft=30;fontColor=#D86613;dashed=0;" parent="1" vertex="1">
          <mxGeometry x="63" y="360" width="200" height="270" as="geometry" />
        </mxCell>
        <mxCell id="RnUKZIb-PjD8DTA2BIBd-54" style="edgeStyle=orthogonalEdgeStyle;rounded=0;orthogonalLoop=1;jettySize=auto;html=1;entryX=0.5;entryY=1;entryDx=0;entryDy=0;startArrow=classic;startFill=1;endArrow=none;endFill=0;" parent="RZWfU97EguXZhOJXuSMn-1" source="RZWfU97EguXZhOJXuSMn-11" target="RnUKZIb-PjD8DTA2BIBd-71" edge="1">
          <mxGeometry relative="1" as="geometry" />
        </mxCell>
        <mxCell id="RZWfU97EguXZhOJXuSMn-11" value="&#xa;&#xa;tomcat-idp-op&#xa;&#xa;&#xa;&#xa;&#xa;&#xa;&#xa;" style="labelPosition=center;verticalLabelPosition=middle;align=center;verticalAlign=middle;fillColor=#f8cecc;strokeColor=#b85450;whiteSpace=wrap;labelBorderColor=none;labelBackgroundColor=none;gradientColor=#ffffff;gradientDirection=north;rounded=1;glass=0;shadow=1;sketch=0;fontStyle=0" parent="RZWfU97EguXZhOJXuSMn-1" vertex="1">
          <mxGeometry x="45" y="166" width="125" height="85" as="geometry" />
        </mxCell>
        <mxCell id="RnUKZIb-PjD8DTA2BIBd-50" value="&lt;span lang=&quot;EN-US&quot;&gt;shibboleth-idp&lt;/span&gt;" style="shape=image;html=1;verticalAlign=top;verticalLabelPosition=bottom;labelBackgroundColor=none;imageAspect=0;aspect=fixed;image=https://cdn0.iconfinder.com/data/icons/font-awesome-brands-vol-1/512/java-128.png;rounded=1;shadow=1;glass=0;sketch=0;gradientColor=#ffffff;gradientDirection=north;fontStyle=0" parent="RZWfU97EguXZhOJXuSMn-1" vertex="1">
          <mxGeometry x="95" y="191" width="25" height="25" as="geometry" />
        </mxCell>
        <mxCell id="RnUKZIb-PjD8DTA2BIBd-34" value="" style="group;rounded=1;glass=0;shadow=1;sketch=0;labelPosition=center;verticalLabelPosition=middle;align=center;verticalAlign=middle;fontStyle=2" parent="RZWfU97EguXZhOJXuSMn-1" vertex="1" connectable="0">
          <mxGeometry x="52" y="33" width="110" height="45" as="geometry" />
        </mxCell>
        <mxCell id="RnUKZIb-PjD8DTA2BIBd-32" value="apache" style="labelPosition=center;verticalLabelPosition=middle;align=center;verticalAlign=middle;fillColor=#dae8fc;strokeColor=#6c8ebf;whiteSpace=wrap;labelBorderColor=none;labelBackgroundColor=none;gradientDirection=north;rounded=1;glass=0;shadow=1;sketch=0;gradientColor=#ffffff;fontStyle=2" parent="RnUKZIb-PjD8DTA2BIBd-34" vertex="1">
          <mxGeometry width="110" height="45" as="geometry" />
        </mxCell>
        <mxCell id="RnUKZIb-PjD8DTA2BIBd-33" value="" style="dashed=0;outlineConnect=0;html=1;align=center;labelPosition=center;verticalLabelPosition=bottom;verticalAlign=top;shape=mxgraph.weblogos.apache;gradientColor=#ffffff;" parent="RnUKZIb-PjD8DTA2BIBd-34" vertex="1">
          <mxGeometry x="9" y="5.625" width="29.999999999999996" height="33.75" as="geometry" />
        </mxCell>
        <mxCell id="RnUKZIb-PjD8DTA2BIBd-74" value="" style="edgeStyle=orthogonalEdgeStyle;rounded=0;orthogonalLoop=1;jettySize=auto;html=1;startArrow=classic;startFill=1;endArrow=none;endFill=0;exitX=0.5;exitY=0;exitDx=0;exitDy=0;entryX=0.5;entryY=1;entryDx=0;entryDy=0;" parent="RZWfU97EguXZhOJXuSMn-1" source="RnUKZIb-PjD8DTA2BIBd-71" target="RnUKZIb-PjD8DTA2BIBd-32" edge="1">
          <mxGeometry relative="1" as="geometry" />
        </mxCell>
        <mxCell id="RnUKZIb-PjD8DTA2BIBd-71" value="8080" style="fontStyle=0;labelPosition=center;verticalLabelPosition=middle;align=center;verticalAlign=middle;spacingLeft=2;rounded=1;shadow=1;glass=0;labelBackgroundColor=none;sketch=0;gradientColor=#ffffff;gradientDirection=north;" parent="RZWfU97EguXZhOJXuSMn-1" vertex="1">
          <mxGeometry x="92.5" y="106" width="30" height="30" as="geometry" />
        </mxCell>
        <mxCell id="RZWfU97EguXZhOJXuSMn-20" value="opprod01" style="points=[[0,0],[0.25,0],[0.5,0],[0.75,0],[1,0],[1,0.25],[1,0.5],[1,0.75],[1,1],[0.75,1],[0.5,1],[0.25,1],[0,1],[0,0.75],[0,0.5],[0,0.25]];outlineConnect=0;gradientColor=none;html=1;whiteSpace=wrap;fontSize=12;fontStyle=0;container=1;pointerEvents=0;collapsible=0;recursiveResize=0;shape=mxgraph.aws4.group;grIcon=mxgraph.aws4.group_ec2_instance_contents;strokeColor=#D86613;fillColor=none;verticalAlign=top;align=left;spacingLeft=30;fontColor=#D86613;dashed=0;rounded=1;shadow=0;glass=0;labelBackgroundColor=none;labelBorderColor=none;sketch=0;" parent="1" vertex="1">
          <mxGeometry x="423" y="360" width="340" height="520" as="geometry" />
        </mxCell>
        <mxCell id="RnUKZIb-PjD8DTA2BIBd-82" value="" style="edgeStyle=orthogonalEdgeStyle;rounded=0;orthogonalLoop=1;jettySize=auto;html=1;startArrow=classic;startFill=1;endArrow=none;endFill=0;entryX=0.5;entryY=1;entryDx=0;entryDy=0;" parent="RZWfU97EguXZhOJXuSMn-20" source="RnUKZIb-PjD8DTA2BIBd-1" target="RnUKZIb-PjD8DTA2BIBd-81" edge="1">
          <mxGeometry relative="1" as="geometry">
            <mxPoint x="115" y="172.5" as="targetPoint" />
          </mxGeometry>
        </mxCell>
        <mxCell id="RnUKZIb-PjD8DTA2BIBd-1" value="tomcat&#xa;&#xa;&#xa;&#xa;&#xa;&#xa;&#xa;" style="aspect=fixed;labelPosition=center;verticalLabelPosition=middle;align=center;verticalAlign=middle;fillColor=#f8cecc;strokeColor=#b85450;whiteSpace=wrap;labelBorderColor=none;labelBackgroundColor=none;gradientColor=#ffffff;gradientDirection=north;rounded=1;glass=0;shadow=1;sketch=0;" parent="RZWfU97EguXZhOJXuSMn-20" vertex="1">
          <mxGeometry x="19" y="192.5" width="130" height="130" as="geometry" />
        </mxCell>
        <mxCell id="RnUKZIb-PjD8DTA2BIBd-90" style="edgeStyle=orthogonalEdgeStyle;rounded=0;orthogonalLoop=1;jettySize=auto;html=1;startArrow=classic;startFill=1;endArrow=none;endFill=0;entryX=0.5;entryY=1;entryDx=0;entryDy=0;" parent="RZWfU97EguXZhOJXuSMn-20" source="RnUKZIb-PjD8DTA2BIBd-12" target="RnUKZIb-PjD8DTA2BIBd-36" edge="1">
          <mxGeometry relative="1" as="geometry">
            <Array as="points">
              <mxPoint x="160" y="295" />
              <mxPoint x="160" y="163" />
              <mxPoint x="132" y="163" />
            </Array>
          </mxGeometry>
        </mxCell>
        <mxCell id="RnUKZIb-PjD8DTA2BIBd-101" style="rounded=0;orthogonalLoop=1;jettySize=auto;html=1;startArrow=none;startFill=0;endArrow=classic;endFill=1;" parent="RZWfU97EguXZhOJXuSMn-20" source="RnUKZIb-PjD8DTA2BIBd-12" target="RnUKZIb-PjD8DTA2BIBd-15" edge="1">
          <mxGeometry relative="1" as="geometry" />
        </mxCell>
        <mxCell id="RnUKZIb-PjD8DTA2BIBd-12" value="ianus" style="sketch=0;pointerEvents=1;shadow=0;dashed=0;html=1;strokeColor=none;fillColor=#505050;labelPosition=center;verticalLabelPosition=bottom;verticalAlign=top;outlineConnect=0;align=center;shape=mxgraph.office.concepts.script;" parent="RZWfU97EguXZhOJXuSMn-20" vertex="1">
          <mxGeometry x="174" y="270" width="53" height="49" as="geometry" />
        </mxCell>
        <mxCell id="RnUKZIb-PjD8DTA2BIBd-91" style="rounded=0;orthogonalLoop=1;jettySize=auto;html=1;startArrow=classic;startFill=1;endArrow=none;endFill=0;exitX=0.5;exitY=0;exitDx=0;exitDy=0;exitPerimeter=0;" parent="RZWfU97EguXZhOJXuSMn-20" source="RnUKZIb-PjD8DTA2BIBd-14" edge="1">
          <mxGeometry relative="1" as="geometry">
            <mxPoint x="280.05882352941194" y="218" as="sourcePoint" />
            <mxPoint x="177" y="110" as="targetPoint" />
          </mxGeometry>
        </mxCell>
        <mxCell id="RnUKZIb-PjD8DTA2BIBd-14" value="&lt;div&gt;web-site&lt;/div&gt;" style="sketch=0;aspect=fixed;pointerEvents=1;shadow=0;dashed=0;html=1;strokeColor=none;labelPosition=center;verticalLabelPosition=bottom;verticalAlign=top;align=center;shape=mxgraph.mscae.enterprise.website_generic;fillColor=#7D7D7D;" parent="RZWfU97EguXZhOJXuSMn-20" vertex="1">
          <mxGeometry x="175.5" y="192.5" width="50" height="44" as="geometry" />
        </mxCell>
        <mxCell id="RnUKZIb-PjD8DTA2BIBd-35" value="" style="group;rounded=1;glass=0;shadow=1;sketch=0;labelPosition=center;verticalLabelPosition=middle;align=center;verticalAlign=middle;" parent="RZWfU97EguXZhOJXuSMn-20" vertex="1" connectable="0">
          <mxGeometry x="37" y="34" width="190" height="80" as="geometry" />
        </mxCell>
        <mxCell id="RnUKZIb-PjD8DTA2BIBd-36" value="apache       " style="labelPosition=center;verticalLabelPosition=middle;align=center;verticalAlign=middle;fillColor=#dae8fc;strokeColor=#6c8ebf;whiteSpace=wrap;labelBorderColor=none;labelBackgroundColor=none;gradientDirection=north;rounded=1;glass=0;shadow=1;sketch=0;gradientColor=#ffffff;" parent="RnUKZIb-PjD8DTA2BIBd-35" vertex="1">
          <mxGeometry width="190" height="80" as="geometry" />
        </mxCell>
        <mxCell id="RnUKZIb-PjD8DTA2BIBd-37" value="" style="dashed=0;outlineConnect=0;html=1;align=center;labelPosition=center;verticalLabelPosition=bottom;verticalAlign=top;shape=mxgraph.weblogos.apache;gradientColor=#ffffff;" parent="RnUKZIb-PjD8DTA2BIBd-35" vertex="1">
          <mxGeometry x="15.545454545454547" y="10" width="51.81818181818181" height="60" as="geometry" />
        </mxCell>
        <mxCell id="RnUKZIb-PjD8DTA2BIBd-41" value="doi-proxy" style="shadow=0;dashed=0;html=1;labelPosition=center;verticalLabelPosition=bottom;verticalAlign=top;align=center;outlineConnect=0;shape=mxgraph.veeam.3d.proxy;rounded=1;glass=0;sketch=0;gradientColor=#ffffff;" parent="RnUKZIb-PjD8DTA2BIBd-35" vertex="1">
          <mxGeometry x="123" y="10" width="46" height="46" as="geometry" />
        </mxCell>
        <mxCell id="RnUKZIb-PjD8DTA2BIBd-100" style="rounded=0;orthogonalLoop=1;jettySize=auto;html=1;startArrow=none;startFill=0;endArrow=classic;endFill=1;exitX=0.5;exitY=1;exitDx=0;exitDy=0;" parent="RZWfU97EguXZhOJXuSMn-20" source="RnUKZIb-PjD8DTA2BIBd-49" target="RnUKZIb-PjD8DTA2BIBd-15" edge="1">
          <mxGeometry relative="1" as="geometry" />
        </mxCell>
        <mxCell id="RnUKZIb-PjD8DTA2BIBd-49" value="&lt;span style=&quot;&quot;&gt;servlet&lt;/span&gt;" style="shape=image;html=1;verticalAlign=top;verticalLabelPosition=bottom;labelBackgroundColor=none;imageAspect=0;aspect=fixed;image=https://cdn0.iconfinder.com/data/icons/font-awesome-brands-vol-1/512/java-128.png;rounded=1;shadow=1;glass=0;sketch=0;gradientColor=#ffffff;gradientDirection=north;" parent="RZWfU97EguXZhOJXuSMn-20" vertex="1">
          <mxGeometry x="40" y="224.5" width="25" height="25" as="geometry" />
        </mxCell>
        <mxCell id="RnUKZIb-PjD8DTA2BIBd-83" value="" style="edgeStyle=orthogonalEdgeStyle;rounded=0;orthogonalLoop=1;jettySize=auto;html=1;startArrow=classic;startFill=1;endArrow=none;endFill=0;entryX=0.25;entryY=1;entryDx=0;entryDy=0;" parent="RZWfU97EguXZhOJXuSMn-20" source="RnUKZIb-PjD8DTA2BIBd-81" target="RnUKZIb-PjD8DTA2BIBd-36" edge="1">
          <mxGeometry relative="1" as="geometry" />
        </mxCell>
        <mxCell id="RnUKZIb-PjD8DTA2BIBd-81" value="8080" style="fontStyle=0;labelPosition=center;verticalLabelPosition=middle;align=center;verticalAlign=middle;spacingLeft=2;rounded=1;shadow=1;glass=0;labelBackgroundColor=none;sketch=0;gradientColor=#ffffff;gradientDirection=north;" parent="RZWfU97EguXZhOJXuSMn-20" vertex="1">
          <mxGeometry x="69.45" y="140" width="30" height="30" as="geometry" />
        </mxCell>
        <mxCell id="RnUKZIb-PjD8DTA2BIBd-52" value="content-resolver" style="shape=image;html=1;verticalAlign=top;verticalLabelPosition=bottom;labelBackgroundColor=none;imageAspect=0;aspect=fixed;image=https://cdn0.iconfinder.com/data/icons/font-awesome-brands-vol-1/512/java-128.png;rounded=1;shadow=1;glass=0;sketch=0;gradientColor=#ffffff;gradientDirection=north;" parent="RZWfU97EguXZhOJXuSMn-20" vertex="1">
          <mxGeometry x="89" y="257.5" width="25" height="25" as="geometry" />
        </mxCell>
        <mxCell id="RnUKZIb-PjD8DTA2BIBd-15" value="send-mail" style="shape=image;html=1;verticalAlign=top;verticalLabelPosition=bottom;labelBackgroundColor=#ffffff;imageAspect=0;aspect=fixed;image=https://cdn3.iconfinder.com/data/icons/beos/BeOS_mail_daemon.png" parent="RZWfU97EguXZhOJXuSMn-20" vertex="1">
          <mxGeometry x="137" y="422" width="55" height="55" as="geometry" />
        </mxCell>
        <mxCell id="RnUKZIb-PjD8DTA2BIBd-10" value="engine" style="shape=image;html=1;verticalAlign=top;verticalLabelPosition=bottom;labelBackgroundColor=#ffffff;imageAspect=0;aspect=fixed;image=https://cdn3.iconfinder.com/data/icons/UltimateGnome/128x128/mimetypes/application-x-java-archive.png" parent="RZWfU97EguXZhOJXuSMn-20" vertex="1">
          <mxGeometry x="237" y="350" width="45" height="45" as="geometry" />
        </mxCell>
        <mxCell id="RnUKZIb-PjD8DTA2BIBd-103" style="rounded=0;orthogonalLoop=1;jettySize=auto;html=1;entryX=1;entryY=0;entryDx=0;entryDy=0;startArrow=none;startFill=0;endArrow=classic;endFill=1;" parent="RZWfU97EguXZhOJXuSMn-20" source="RnUKZIb-PjD8DTA2BIBd-10" target="RnUKZIb-PjD8DTA2BIBd-15" edge="1">
          <mxGeometry relative="1" as="geometry" />
        </mxCell>
        <mxCell id="RnUKZIb-PjD8DTA2BIBd-6" value="&lt;div&gt;doi-manager&lt;/div&gt;" style="shape=image;html=1;verticalAlign=top;verticalLabelPosition=bottom;labelBackgroundColor=#ffffff;imageAspect=0;aspect=fixed;image=https://cdn3.iconfinder.com/data/icons/UltimateGnome/128x128/mimetypes/application-x-java-archive.png" parent="RZWfU97EguXZhOJXuSMn-20" vertex="1">
          <mxGeometry x="267" y="427.5" width="45" height="45" as="geometry" />
        </mxCell>
        <mxCell id="RnUKZIb-PjD8DTA2BIBd-102" style="edgeStyle=orthogonalEdgeStyle;rounded=0;orthogonalLoop=1;jettySize=auto;html=1;startArrow=none;startFill=0;endArrow=classic;endFill=1;" parent="RZWfU97EguXZhOJXuSMn-20" source="RnUKZIb-PjD8DTA2BIBd-6" target="RnUKZIb-PjD8DTA2BIBd-15" edge="1">
          <mxGeometry relative="1" as="geometry" />
        </mxCell>
        <mxCell id="RZWfU97EguXZhOJXuSMn-21" value="mwprod01" style="points=[[0,0],[0.25,0],[0.5,0],[0.75,0],[1,0],[1,0.25],[1,0.5],[1,0.75],[1,1],[0.75,1],[0.5,1],[0.25,1],[0,1],[0,0.75],[0,0.5],[0,0.25]];outlineConnect=0;gradientColor=none;html=1;whiteSpace=wrap;fontSize=12;fontStyle=2;container=1;pointerEvents=0;collapsible=0;recursiveResize=0;shape=mxgraph.aws4.group;grIcon=mxgraph.aws4.group_ec2_instance_contents;strokeColor=#D86613;fillColor=none;verticalAlign=top;align=left;spacingLeft=30;fontColor=#D86613;dashed=0;rounded=1;shadow=0;glass=0;labelBackgroundColor=none;labelBorderColor=none;sketch=0;" parent="1" vertex="1">
          <mxGeometry x="63" y="645" width="300" height="235" as="geometry" />
        </mxCell>
        <mxCell id="RnUKZIb-PjD8DTA2BIBd-63" style="rounded=0;orthogonalLoop=1;jettySize=auto;html=1;entryX=0;entryY=1;entryDx=0;entryDy=0;startArrow=classic;startFill=1;exitX=0.5;exitY=0;exitDx=0;exitDy=0;endArrow=none;endFill=0;" parent="RZWfU97EguXZhOJXuSMn-21" source="RnUKZIb-PjD8DTA2BIBd-23" target="RnUKZIb-PjD8DTA2BIBd-39" edge="1">
          <mxGeometry relative="1" as="geometry" />
        </mxCell>
        <mxCell id="RnUKZIb-PjD8DTA2BIBd-23" value="jenkins" style="shape=image;html=1;verticalAlign=top;verticalLabelPosition=bottom;labelBackgroundColor=#ffffff;imageAspect=0;aspect=fixed;image=https://cdn0.iconfinder.com/data/icons/font-awesome-brands-vol-1/512/jenkins-128.png;fontStyle=2" parent="RZWfU97EguXZhOJXuSMn-21" vertex="1">
          <mxGeometry x="30" y="145" width="40" height="40" as="geometry" />
        </mxCell>
        <mxCell id="RnUKZIb-PjD8DTA2BIBd-77" value="" style="edgeStyle=orthogonalEdgeStyle;rounded=0;orthogonalLoop=1;jettySize=auto;html=1;startArrow=classic;startFill=1;endArrow=none;endFill=0;" parent="RZWfU97EguXZhOJXuSMn-21" source="RnUKZIb-PjD8DTA2BIBd-2" target="RnUKZIb-PjD8DTA2BIBd-75" edge="1">
          <mxGeometry relative="1" as="geometry" />
        </mxCell>
        <mxCell id="RnUKZIb-PjD8DTA2BIBd-2" value="&#xa;&#xa;tomcat&#xa;&#xa;&#xa;&#xa;&#xa;&#xa;&#xa;" style="aspect=fixed;labelPosition=center;verticalLabelPosition=middle;align=center;verticalAlign=middle;fillColor=#f8cecc;strokeColor=#b85450;whiteSpace=wrap;labelBorderColor=none;labelBackgroundColor=none;gradientColor=#ffffff;gradientDirection=north;rounded=1;glass=0;shadow=1;sketch=0;fontStyle=2" parent="RZWfU97EguXZhOJXuSMn-21" vertex="1">
          <mxGeometry x="100" y="130" width="90" height="90" as="geometry" />
        </mxCell>
        <mxCell id="RnUKZIb-PjD8DTA2BIBd-38" value="" style="group;rounded=1;glass=0;shadow=1;sketch=0;labelPosition=center;verticalLabelPosition=middle;align=center;verticalAlign=middle;fontStyle=2" parent="RZWfU97EguXZhOJXuSMn-21" vertex="1" connectable="0">
          <mxGeometry x="90" y="10" width="110" height="45" as="geometry" />
        </mxCell>
        <mxCell id="RnUKZIb-PjD8DTA2BIBd-39" value="apache" style="labelPosition=center;verticalLabelPosition=middle;align=center;verticalAlign=middle;fillColor=#dae8fc;strokeColor=#6c8ebf;whiteSpace=wrap;labelBorderColor=none;labelBackgroundColor=none;gradientDirection=north;rounded=1;glass=0;shadow=1;sketch=0;gradientColor=#ffffff;fontStyle=2" parent="RnUKZIb-PjD8DTA2BIBd-38" vertex="1">
          <mxGeometry width="110" height="45" as="geometry" />
        </mxCell>
        <mxCell id="RnUKZIb-PjD8DTA2BIBd-40" value="" style="dashed=0;outlineConnect=0;html=1;align=center;labelPosition=center;verticalLabelPosition=bottom;verticalAlign=top;shape=mxgraph.weblogos.apache;gradientColor=#ffffff;" parent="RnUKZIb-PjD8DTA2BIBd-38" vertex="1">
          <mxGeometry x="9" y="5.625" width="29.999999999999996" height="33.75" as="geometry" />
        </mxCell>
        <mxCell id="RnUKZIb-PjD8DTA2BIBd-62" value="transformer" style="shape=image;html=1;verticalAlign=top;verticalLabelPosition=bottom;labelBackgroundColor=none;imageAspect=0;aspect=fixed;image=https://cdn0.iconfinder.com/data/icons/font-awesome-brands-vol-1/512/java-128.png;rounded=1;shadow=1;glass=0;sketch=0;gradientColor=#ffffff;gradientDirection=north;fontStyle=2" parent="RZWfU97EguXZhOJXuSMn-21" vertex="1">
          <mxGeometry x="131" y="157.5" width="25" height="25" as="geometry" />
        </mxCell>
        <mxCell id="RnUKZIb-PjD8DTA2BIBd-64" style="rounded=0;orthogonalLoop=1;jettySize=auto;html=1;entryX=1;entryY=1;entryDx=0;entryDy=0;startArrow=classic;startFill=1;exitX=0.5;exitY=0;exitDx=0;exitDy=0;endArrow=none;endFill=0;" parent="RZWfU97EguXZhOJXuSMn-21" source="RnUKZIb-PjD8DTA2BIBd-26" target="RnUKZIb-PjD8DTA2BIBd-39" edge="1">
          <mxGeometry relative="1" as="geometry" />
        </mxCell>
        <mxCell id="RnUKZIb-PjD8DTA2BIBd-26" value="nagios" style="shape=image;imageAspect=0;aspect=fixed;verticalLabelPosition=bottom;verticalAlign=top;image=data:image/png,iVBORw0KGgoAAAANSUhEUgAAAgAAAAIACAAAAADRE4smAAAVwklEQVR4AezSgQAAAAACoP2lH+RiKOWaAAIgAAIgAAIgAAIgAAIgAAIgAAIgAAIgAAIgAAIgAAIgAAIgAAIgAAIgAAIgAAIgAAIgAAIgAAIgAAIgAAIgAAIgAAIgAAIgAAIgAAIgAAIgwNi76/gor3Vv49dMXHF3UqyG1r04dRfq7u7u7u4t9eJOqe6im+IkaCjSRnAJUZKZeY++55xuIMnMWs9az8r95W/8+vzuFVQrEY9/lKzdtPnfPm0JJ8THxyc0advuoBbESPgjgMKlK1esXJEX4W9aHjr45JaIGAQi2C1//r/ZwF4FjrzhnASEiwGUzJs1+/eNVKvF5B7YqGxN3l9528vKy8JJyUmpjRs3btKuVVACqJk1s2fPXlJFzTSZ1hXLrP9h7tycKv4uqUNWVsesrA7JEsDelc2fNXv2Rmqj9Yx2WGTd8JFz2Zdgp+7dux/cRgL4u8qcefPmL6mk1vrMjscW2U+PCFMTDQ/u3qP3/nEASAD5OTk52TkVROnRx7DDmjvHRaiFlO59ehuswHwAofy/1uSuzs3dSUziZ/fBBh/eUUztpXTv1bPngUl1JYCluanhUEnRrq2bNm3MLwihRI8FAYwrP2diDA13OvDACzrVhQCu+RANvj0P4167ndgcNC8RbwXx3mJ0eCSEaaXPEaPsR3A/gFA2Oqz6DNPe3EisXpzlfgC5ZWjxKoaVvkDMwpeWOB/AIvRYOg2zvtpG7FY/6XwAi9HkPcx6GxVeWyMLEKVRmzFphpqyK+6SBYjS7hEoYHyAxvzqdgCbC9FlJAaVjUOR2yNOB7AYbaZtwZwpxSiyeLQEEJ3QWMwZjjLPSABRGocxZRNRZsEUlwNYgj6/VWHKjBLUecrhACqXo8+u3zHlJxSa9Zu7AazcjUY/uREAb7sbQDY6/YwhWxeh0thNEkBU5oUw4/cwKlV+IgFEpXQ5ZixBrQ8jEkBU5mNGNmqt+dHRAHb96WYAS1DsS0cDyI44GUDlChQbV+FmADnotSiECSsqUaxoqqMLgF6lKzAhG+WGSwA+ugFLUG58OdGQAFxZgF0/uRhAwTY0G/UDBqxCve9dDGAZuuUPPO0PPLcJ9aa6GMBy9Bt/wP3FeKu8CPVWr3EwgBV4oOK5zl9EfD8AMFUWIFqFlxw51/8BfC8LEL1/Hnb5NjyzER2muxfAzkK8Evms+zSfL8D2P5wLYAUeyjvxsZCvF4C5EkBMQo+fmOfnBWCecwEsx1vTuo+zPwBZAI22nX5zBfqVosWCsCxAzN46bCXa7UaL4hWOBVC5Bu8tPnyaXwNgnmMBrK3CgB0DhmsvWwKokTUYUXH+qz5dgLmuLQBmRO64M+LLABZVyQKo8cr5FX4MoDxHFkCR4QN3+PANQI4sgCq/HZ3vvwVgrSyAMkv7bjS7ABLA9h2YtLL/NjSJQ5N1TgWwBrOyBxahR6IsQE2sxbB5Q0p8FkBelSyASjNPK/dXAFV5sgBK/XxOJRokoMtalwL4C/MmXhgytQASwAYsMPIGXwWwzqUACrHBB6/JApgJILIJK9w1RRbASACbq7BC6Pxl8gg0EcAGLFF0yhbUSkOXDQ4FUIgt1py5G6Uy0CVUJAFoMP16vwTAdjkBOnzykl8C2CYLoMW9P9blBZAFIHxRoSxAXQ6ATReGvA1AFmA7VvnH4yiTKQHUQBF2efonOQF1OoDw0ELTAcgCmH8GyAnwSmkIcPQZUF9OgA8HAHj6Z5RIS5AF8GUA4ct22D4BOyQAnfJutD2ACglAq69HoEIDdNktAeh1XaHBBZAAzNt2pd0LUCkBaDblPVkAT1RiqbtW27wAVRFXAghjqZJLQhYvAJWuBBDCVrNftDmA3bIA2j22QhagTgdQcWVYFkC7EPaa9WZdDkAWAB5YU5dPgCwApVdFDH4YKAtg3q8f2roAVbIAnrg7jxgkpqBLUBbAE0XXWjoBcRKANyZ/KQFoFY/lbt9C9OqhS7wrAaRguS23Eb10WQDfB8BX30sAGqViveuK63IAsgCsf9BkAPIGMO+tObIAdTqA8FWVBv+ZKHkDmJfzXF1eAFkAeHqFvAHqdAAVV0dkAepyAMx4TwLQIxV/uC/fqn8sNhFZAG8V3WDVpU51JoCGAfxh/AgdQy0BJDbBJ27ebtECpDgTAK3xiY13yQnQoRV+8ckvdfkEyALAVSWyAOp1wDfW3isLoF4v/OOd32QBlOuNf0SuKFG9APJRQP0s/GPN/dRKpSxA9frgI29NozbKJIDqHYKvjkAptVAqAVSvP37yx/2yAIod3BI/eXOa0gDkEQiD8ZPIJUUWBJAhARiz/gYLAsh0KYB+8fjKV9+YfwTWcymAegPxl+v/lAVQaij+svPiMDVTIgtQE6el4y/Tnlf536LKAqSegc88Op8ayZcAauQifKZyaCk1kYcewXS3AujXAZ9ZebPRADICbgUQvA6/+eQjqldchB6ZuBUAVybjNzcvMDcA1HMtgEbn4TflZ21X9gaUBeAmfGfdRRFZAGX6HIvvTH5KWQCyANyL/zz2A/u2SgKosSEH4TvhC/9kn5agSQP3AuAe/Gfr2WXsQ9VyCaDmzm+P/8wdGmbvVlWgSUMHA4h/EB8acyd7txBZgFq4rCM+9Nrr7NUMZAFqIf4R/OiOsWoCkAXgok74UPjCOezZ9qWyALUS9yh+VHbKmr0MQEQWoHYu6IYfbR68jT2ZjC5xmW4GEHwMX1p18i72YCK61A+4GQDnHIQvzR5YxL9YkGfgAvg8gMBjuFPAeLRp6GoAnNETf/rngJ38zdfIAtRa4El8ak7/Hfwf03NlAaJw0uH41Ny/FfAJsgDReAq/mtdvO/9j1whkAaLR9zj8an6/Tfx/H5bUtQWQCWDBodn8l4qXkQCic/RAfGv9kRP4T8MKkBMQpSfxr+LTXwSg8gVkAaJ1yGko13Pa1XgifM/lu4E3/0AWIGqPoFjC878f88Gohnjis76b2fQEPl+AQASDBn+PSpmj+gHkX/wrnmg/4dVP0Ko0xekF4AFUaj6jHwCtfnomDi+sO+JTtEpKcXwBOGYGyqT91pv/9v0FO3BAiwLcXgDuRZngN735/wbN6YIDGuB6AEOyUOX2U/hfOs8ZhP0kgOCNKNLpSf6PepNuw/caOh8Al6ehxvsp/F/BV5/DdrIA1B+KEn1P4F/c+1EclpMF4BKUeJw9uHJEEnaTBeDI9ihw9FHsyRnfZ2A3CSAwFAWuZM+On5KO1SQALiR2GeewF0dNTsNqEsD+7YjZqWnszTGTUrGZBEBfYnYCe3fchBTXA5AAjmcfThyb4HYAEkDrLPZlwLAA9pIAmjXXOgDABa/iSylJdSIAOusOgFvvx4/qIwHUyAlU55kr5ALYG0AnYpPZkWp9MAhbSQAZxKY91Yv77gAsJQHEeRAAmRObYicJIEhsOtQsk3HJWEkCCHixAHD4pwFsJB8F5HkTAOc/gL9k1pEAcj05AcATA7GQBLCQ2LShhoJft8c6EsD6ZZ79ODUclYxtJIAJxCYpnhrr9S62kQA+IDZp1MJl1+Ef9epEAL9kE5t0auP1w7CKLMCTeLkAJI5sikUkgPH/wNMFoPW3cfhERh0IoPQuvF0AOOE5/CEtrg4EcFcusUqllu46Wy6ALQFMehcDPs7CChLApiuIXZjayvw2ERtIAFduInYhaq3Pc1hAAnh6IkYWAG4/GfuluR7AuIcxFQCftcJ6KY4HkH1RxFwAjb6OwygJYMupxZgLgGMfwSQJoPKsdZgMgIdOwHKpTgdw3TQUqSAqwS+bYIwswEufoEop0Wk5LIAhEsDEezEeAIPvxAwJIPuCsAUB8MwhmCBvgF1nFWNDAAnfZMgCYMDVuVgRAFnvSgB4773vUClcQdSGXiIBeG7R7ahVQvTe3k/eAB4rObcctUqJXvq3ibIA3no0F8WKiUHvZ7BVvJMBLHgN1XYRizsGYqmgkwHcEkK1ImIRGNZMAvDOhJlYtgA0GxaQADzzINYFwMA7JQCv/JRtYQA800cC8Mjb2BhAwnf1JABPbJyABkXEquPHEoAnJoesXAA46yYJwAsTsTQAXuolAegX+cXaAJKGZ0oA2q3eYW0AZH0oAWg3Fy2KUOHc6zFGAjC/APBKD9xnNoB5VgeQPDwDq5Q5F8BCqwOg0/tYpdS1APJL7A6AC66RAHRahR5V5Sjyei85AT4MAGUBJI9pLAtQlwOg7fB4CUCbNWhSgTInvIQ1trkWwAb7FwBuvRhbbJIADATAB70lAE02+uAEQPLoJhKAFkVlBhbAzw/BzY4FsA1/BMDxL8sC6FCCLiHUuuUSbFDgWACl/vlOvN8HC+zcbigACSB5dFMssMatAMrQJQ7V2nwXh3lr3Qog6Kcv+fjnZQFUS/LVd+LOc2UBFEv20QkAPu6IORKA+e9E+rAg+skJUCEBHY6+G8PWh2UBTP4/+08cgFm7CySAGmmEFonv+uIGyAkI1kePYy71wytQFqBBAE1eqC8LoE5Kir8uAND0QYzKdSoAWqJHQ7S5ua0EoE4L3y0ASU/ZH4AsQHP0GdoNg3ZukgBqoBv6BO+zfgIkgAPR6ML2GLRKAqiBA9Ao/h5ZAMsfgZmt0eny5pgiC2B+ACD5DlkARdoF/BgA1zfAmNURlwJI0TMB3dEr/RqMKc13KQD2Q4eT0OymeItvgATQvQOatT4bY/5wKoAsNDgd7W7DmPWyANU5A+0OOxxT1kkA1ejQHb9MgCxAlj8vAJzVVhZAhcwmqBa4Gg/E34EhBVUuBUAn9QPQDS9c1RAzQhudCmA/VHsAT6TdYOW/EiELcEkfvHFzsoUBSAANX8IjTS+zMAA5AU82wSt3xVsXgCxAiyvxTNY1GLHZqQAym6LSzUl459EMTCi1NwDzE3AOHmp6LyaUuxXAfii033546Y5WdgUgAXTBUylPSgAxa4tCzfHWpd0lgFi1QaFyvBX8OB7PRWQB9uovPNb7PjyX5lYArQOosyiExx4+GK+luxVAUjPUKZqOxxJHZsoCWPQI+BKvdfpUArDoEfDVFrx25n14q54EsHfl7+G5Z4biqY4SwD68sxuvBT4diJc6ORZAK1Qq/AbPJYw8RgKIXhOUegXvpU8dhGdauPYIbIxSS37GeynjzsYrXZEF2KcvMCDxu/sCeON41wJoFECpCVUYEHx2dCaeGOBaAPH1UGrbNIw4fe4BeKD+Ia4FQCZqjcGMzv88F/36xjkXQAZqzcGQ9O9ejke3U6iGBLA0jCl3/NQMvRqf514A6ahVuhljjpt/PFpdlywLUK3tmNPql7fT0SfhBtwL4PIAahVhUOCG7L5oc24LBwM45UHUSsSo9j9+0Bg9Uh7HwQB4fBBKpWFW4OpVN8ejw5NZTgYQ/KoPKtXHtAZvLOqLen1u86TfCJ4rvWA8ymTuxAaTH52HWgnzDsbJBYDUMTejTCesMGTu+F4o9fzBuBoAwTc+rIciZ2KJU+aPPQJ17r4dzJ0A/QpvGo0CGR+fg0XmvT58N0pc9iluBwDjbsojVgeP7IRdNrz3yV8q5mR0vPMBUP7Ji+uIReptD6VgnchvX47cSWxO+yYF9wOAqq+fW0604q98tAV2Kp/43Q9FRO+2l4PUiQAgMvWLsaVEIfGsxzpjscqZkyYvIyppb18KpgIwoHjMlz+HqJ3ul1/UCOutnz5rVk6I2ok75LMuGA3AgM0///TTemqq68BLeuEXxXPmLF22sowayOjStWvXLp2SwHwABuT+NHPRihDVaN6vX79W+E143fKVeQX5BQXl/ItgRuNWrf9dm+aYEIhgj/KcRYtW/flXKXuQ0u3/sXOPge1rcRyHf8lqJfN2bdu2bd9X17Zt22+ubds22v41Zk01K13d3NPsGkMzJf0+B9v69nza+azBLEmG1j+kKEpCSfNFFQ5BEAUfR79DAL/pkUNdyrCiDKetRc76+ob6hiqOpgOoUNYQAAIABAAIABAAIABAAIAAYG5CAIAAAAEAAgAEAAgAEAAgAEAAgAAAAQACAAQACAAQACAAQACAAAABAAIABAAIABAAIABAAIAAAAEAAgALjQWGo1ElyaQ53sLYrDa73e5wOJwul5MjE0AA/y3R3NTUJLPTp//n9Gi8Hq/ICGw5yRjGuCcQlGAwEFwYpVLYqmt+11hXYbAAIN8U8PuDkkpTgq9tHLVUI48AxpaJhsPh3sRIYoTNRJbXVPC8w+12acPtEwRREF00XeL+gD8wP03Twrbk0polrQjgHzLB7/1yONKl0oRYihVUFlUVN5En3Qpyc/OigL+HZgC/zEorr7zySotzCIDJBn/4/gd/hnTgvKKmki2vpzisNEGpwVgsHo3Lza1pmmnulVZeZe11ly7rALpfefHDNE09u4dV4LbbbWxom0VVC2xoW2EkobCRUNjK02yrXHfdddZdpaIcA4i89MJneQLGueYmm22+RFkFMPDQM9+qBH+x5FbbbbdMmQSw8M5HEwT/ttyOe2zvNH0A8y9+WSX4H87t9tmvyswBSJc9XiAYi3WnQ/ZzmTSAzI3XpAjGJRx53BpmDODz4+YTTMy2F+5gtgByF9+oEkzYRtfsYKoAQod+SZMCe9+yPM0MnqbdB+tO9vzhlTXuM80rwKNHZ2nyYJ9HvaYI4KpLqSSw8VuVJvgUcE6p5w/f7JAyfgAX30ylgh9PN3wAV19DpYMHPjN4AOqVpAfcYvAAerOkB7w2YuwAYqQLFOYbO4Aw6QNxYwfQRPqA19gBLKSyhgAWkT5Qa+wA2kkXWHpJYwfQRbrA9mTsAAqkC+xp8ACqSA9Yc2+DB7AV6QFXcAYP4CoflQ4O2JcMHsAKP+5acsOw1sNm+IugRU8+3UQlgBXeW8YMATDf3fNEjoyJ5woqzY6tXqw2z/8F/HRwM81lVkHwuJwuNouDzd/fsRNlB4d6u7vi0UhUjhVoplScer2NzBMASev30dzhEgTBN7q0zeekCclFQh1ShySFMjTNNrlvHZP9a9jZt9DssYuVo0Obgs9C+hSiUrvU3i7JeZoWm521L0cmC2DgO1mWQ3JYoRlg9YmCIIrF09aGk6ZHLixpwlMZgnevkzcx8Q0h/ayDeE93T093b4amiMUniEKR6Bt966KZlQt3dMhMaJB0qt7lwJ0d5XJN3FB3T3f/sDI8zBabSjqbydIYeKvT7XL9Povj97c0VwzLTDQej3VlabK4ZTbaaqvVufK+KVTNZjQFUn9/hLdYrVZt8WQcam8sHovHe/r6+/v6MzS22qWXWmbVNVf34KpYk0qwCPqUVCqdYtjG2aw2NtnmqmYanLMca1kDYuvXdulYAAAAAGCQv/Uo9hVDCIAACIAACIAACIAACIAACIAACIAACIAACIAACIAACIAACIAACIAACIAACIAACIAACIAACIAACIAACIAACIAACIAACIAACIAACIAAPARAAARAAAQgc3kFJ3Zi8c4AAAAASUVORK5CYII=;fontStyle=2" parent="RZWfU97EguXZhOJXuSMn-21" vertex="1">
          <mxGeometry x="213" y="142.5" width="50" height="50" as="geometry" />
        </mxCell>
        <mxCell id="RnUKZIb-PjD8DTA2BIBd-75" value="8080" style="fontStyle=0;labelPosition=center;verticalLabelPosition=middle;align=center;verticalAlign=middle;spacingLeft=2;rounded=1;shadow=1;glass=0;labelBackgroundColor=none;sketch=0;gradientColor=#ffffff;gradientDirection=north;" parent="RZWfU97EguXZhOJXuSMn-21" vertex="1">
          <mxGeometry x="130" y="77.5" width="30" height="30" as="geometry" />
        </mxCell>
        <mxCell id="RnUKZIb-PjD8DTA2BIBd-78" value="" style="edgeStyle=orthogonalEdgeStyle;rounded=0;orthogonalLoop=1;jettySize=auto;html=1;startArrow=classic;startFill=1;endArrow=none;endFill=0;" parent="RZWfU97EguXZhOJXuSMn-21" source="RnUKZIb-PjD8DTA2BIBd-75" edge="1">
          <mxGeometry relative="1" as="geometry">
            <mxPoint x="145" y="58" as="targetPoint" />
          </mxGeometry>
        </mxCell>
        <mxCell id="RZWfU97EguXZhOJXuSMn-22" value="elb" style="sketch=0;outlineConnect=0;fontColor=#232F3E;gradientColor=none;fillColor=#4D27AA;strokeColor=none;dashed=0;verticalLabelPosition=bottom;verticalAlign=top;align=center;html=1;fontSize=12;fontStyle=2;aspect=fixed;pointerEvents=1;shape=mxgraph.aws4.application_load_balancer;rounded=1;shadow=0;glass=0;labelBackgroundColor=none;labelBorderColor=none;" parent="1" vertex="1">
          <mxGeometry x="325" y="204" width="78" height="78" as="geometry" />
        </mxCell>
        <mxCell id="RZWfU97EguXZhOJXuSMn-24" value="" style="edgeStyle=orthogonalEdgeStyle;rounded=0;orthogonalLoop=1;jettySize=auto;html=1;startArrow=none;startFill=0;" parent="1" source="RZWfU97EguXZhOJXuSMn-23" target="RZWfU97EguXZhOJXuSMn-22" edge="1">
          <mxGeometry relative="1" as="geometry" />
        </mxCell>
        <mxCell id="RZWfU97EguXZhOJXuSMn-23" value="nlb" style="sketch=0;outlineConnect=0;fontColor=#232F3E;gradientColor=none;fillColor=#4D27AA;strokeColor=none;dashed=0;verticalLabelPosition=bottom;verticalAlign=top;align=center;html=1;fontSize=12;fontStyle=2;aspect=fixed;pointerEvents=1;shape=mxgraph.aws4.network_load_balancer;rounded=1;shadow=0;glass=0;labelBackgroundColor=none;labelBorderColor=none;" parent="1" vertex="1">
          <mxGeometry x="205" y="204" width="78" height="78" as="geometry" />
        </mxCell>
        <mxCell id="RnUKZIb-PjD8DTA2BIBd-61" style="edgeStyle=orthogonalEdgeStyle;rounded=0;orthogonalLoop=1;jettySize=auto;html=1;startArrow=none;startFill=0;" parent="1" source="RnUKZIb-PjD8DTA2BIBd-5" target="RnUKZIb-PjD8DTA2BIBd-22" edge="1">
          <mxGeometry relative="1" as="geometry" />
        </mxCell>
        <mxCell id="RnUKZIb-PjD8DTA2BIBd-5" value="medra-staff" style="sketch=0;outlineConnect=0;fontColor=#232F3E;gradientColor=none;strokeColor=#232F3E;fillColor=#ffffff;dashed=0;verticalLabelPosition=bottom;verticalAlign=top;align=center;html=1;fontSize=12;fontStyle=0;aspect=fixed;shape=mxgraph.aws4.resourceIcon;resIcon=mxgraph.aws4.user;" parent="1" vertex="1">
          <mxGeometry x="372" y="1080" width="60" height="60" as="geometry" />
        </mxCell>
        <mxCell id="RnUKZIb-PjD8DTA2BIBd-16" value="ses" style="outlineConnect=0;dashed=0;verticalLabelPosition=bottom;verticalAlign=top;align=center;html=1;shape=mxgraph.aws3.ses;fillColor=#D9A741;gradientColor=none;fontStyle=2" parent="1" vertex="1">
          <mxGeometry x="563" y="912.5" width="50" height="50" as="geometry" />
        </mxCell>
        <mxCell id="RnUKZIb-PjD8DTA2BIBd-17" value="crossref-system" style="sketch=0;html=1;dashed=0;whitespace=wrap;fillColor=#2875E2;strokeColor=#ffffff;points=[[0.005,0.63,0],[0.1,0.2,0],[0.9,0.2,0],[0.5,0,0],[0.995,0.63,0],[0.72,0.99,0],[0.5,1,0],[0.28,0.99,0]];shape=mxgraph.kubernetes.icon;prIcon=api;labelPosition=center;verticalLabelPosition=bottom;align=center;verticalAlign=top;" parent="1" vertex="1">
          <mxGeometry x="643" y="92" width="50" height="48" as="geometry" />
        </mxCell>
        <mxCell id="RnUKZIb-PjD8DTA2BIBd-18" value="datacite-system" style="sketch=0;html=1;dashed=0;whitespace=wrap;fillColor=#2875E2;strokeColor=#ffffff;points=[[0.005,0.63,0],[0.1,0.2,0],[0.9,0.2,0],[0.5,0,0],[0.995,0.63,0],[0.72,0.99,0],[0.5,1,0],[0.28,0.99,0]];shape=mxgraph.kubernetes.icon;prIcon=api;labelPosition=center;verticalLabelPosition=bottom;align=center;verticalAlign=top;" parent="1" vertex="1">
          <mxGeometry x="568" y="32" width="50" height="48" as="geometry" />
        </mxCell>
        <mxCell id="RnUKZIb-PjD8DTA2BIBd-19" value="handle-system" style="sketch=0;html=1;dashed=0;whitespace=wrap;fillColor=#2875E2;strokeColor=#ffffff;points=[[0.005,0.63,0],[0.1,0.2,0],[0.9,0.2,0],[0.5,0,0],[0.995,0.63,0],[0.72,0.99,0],[0.5,1,0],[0.28,0.99,0]];shape=mxgraph.kubernetes.icon;prIcon=api;labelPosition=center;verticalLabelPosition=bottom;align=center;verticalAlign=top;" parent="1" vertex="1">
          <mxGeometry x="713" y="32" width="50" height="48" as="geometry" />
        </mxCell>
        <mxCell id="RnUKZIb-PjD8DTA2BIBd-21" value="op-sftp" style="shape=image;html=1;verticalAlign=top;verticalLabelPosition=bottom;labelBackgroundColor=#ffffff;imageAspect=0;aspect=fixed;image=https://cdn2.iconfinder.com/data/icons/whcompare-servers-web-hosting/50/sftp-128.png" parent="1" vertex="1">
          <mxGeometry x="474.5" y="32" width="60" height="60" as="geometry" />
        </mxCell>
        <mxCell id="RnUKZIb-PjD8DTA2BIBd-22" value="" style="sketch=0;pointerEvents=1;shadow=0;dashed=0;html=1;strokeColor=none;fillColor=#434445;aspect=fixed;labelPosition=center;verticalLabelPosition=bottom;verticalAlign=top;align=center;outlineConnect=0;shape=mxgraph.vvd.vpn;" parent="1" vertex="1">
          <mxGeometry x="130" y="1010" width="50" height="50" as="geometry" />
        </mxCell>
        <mxCell id="RnUKZIb-PjD8DTA2BIBd-96" style="rounded=0;orthogonalLoop=1;jettySize=auto;html=1;startArrow=none;startFill=0;endArrow=classic;endFill=1;" parent="1" source="RnUKZIb-PjD8DTA2BIBd-25" target="RZWfU97EguXZhOJXuSMn-22" edge="1">
          <mxGeometry relative="1" as="geometry" />
        </mxCell>
        <mxCell id="RnUKZIb-PjD8DTA2BIBd-25" value="" style="shape=image;imageAspect=0;aspect=fixed;verticalLabelPosition=bottom;verticalAlign=top;image=data:image/png,iVBORw0KGgoAAAANSUhEUgAAAKUAAACHCAMAAABAkWnVAAADAFBMVEX/////8AAAAAAlJSX/9AAdHR3//vT/8Q//9oz8+AAiIiL/9gAFBxZYVAsaGhr/8QD//wAUFBTi4uIPDw++vr4ICAjKugDu6sXs3gAAACjFtgDY2NhbW1sXFxf09PSioqLr6+uXl5eNjY2tra1SUlJubm6ztAM+Pj6Dg4PMzMzPvwBOTk4AAAnQ0NB5eXm5qQD//ucAABxCQkLWyAAYFgBqYgC1tbUfHyYwMDBkYx0QDygAACK0pAATFCdkZGQ8NwP/8z7j1ACIfQD/+8j//dyZjQD/+a7/94LQwkXd1HbPwjfs57Hf145iWwAuKgD/+JyklgDMwVfq5wDGuTxSUSEtLiP/9GT/9nD/8jj//M1HQgD/+7l6cQAoJQBEQyIWFyTR0QuMjBhLSSN0cBy1sgDExAagoAXTyXRbWRvIwHzc16vg2p3Jv106OCLu5pJvb29wcHBxcXFycnJzc3N0dHR1dXV2dnZ3d3d4eHh5eXl6enp7e3t8fHx9fX1+fn5/f3+AgICBgYGCgoKDg4OEhISFhYWGhoaHh4eIiIiJiYmKioqLi4uMjIyNjY2Ojo6Pj4+QkJCRkZGSkpKTk5OUlJSVlZWWlpaXl5eYmJiZmZmampqbm5ucnJydnZ2enp6fn5+goKChoaGioqKjo6OkpKSlpaWmpqanp6eoqKipqamqqqqrq6usrKytra2urq6vr6+wsLCxsbGysrKzs7O0tLS1tbW2tra3t7e4uLi5ubm6urq7u7u8vLy9vb2+vr6/v7/AwMDBwcHCwsLDw8PExMTFxcXGxsbHx8fIyMjJycnKysrLy8vMzMzNzc3Ozs7Pz8/Q0NDR0dHS0tLT09PU1NTV1dXW1tbX19fY2NjZ2dna2trb29vc3Nzd3d3e3t7f39/g4ODh4eHi4uLj4+Pk5OTl5eXm5ubn5+fo6Ojp6enq6urr6+vs7Ozt7e3u7u7v7+/w8PDx8fHy8vLz8/P09PT19fX29vb39/f4+Pj5+fn6+vr7+/v8/Pz9/f3+/v7////XzwC1AAAJoElEQVR42u2Y+1vaShqAh2mExrEkhEu5SAiIBQKKEgEtaI3Vdk9vp+Wcth7XU9t62d3W7v//4w4zQyapoEgTQvfp6/NISIbhne+bb4YETMTaX0+evts9PAzdmsPd3fe/P94PAq8JPnl3GPgxQrtP9711vBsKuMK7fwLPeEIcXfL0Kp7vA25y+Bh4wP5hwGV+/xkkA4G7rtcNlnQft2voXcATHrtb3QFv2A26me/AeAgII5D/0vSn5tOxFAUhaRqGoev4XzKJ3wbGYA24xdoYqzlCSSOhE0mdvCSMJEKBG3kK3OLuzY6CmdD19EHz0QbEbDxqHqR1PWEKN3oeuhbM3cD1SCipG4m9I2zI2TjaSxh6EklTKvP9GxKOQrqRbsIhNNOGflM4309nGcKBTDThCJoJPXm9Zmgq0xKZRvdvyIhzIOXvrm5erxn0ct/hksfcMMqxRI+N6zX/8rB4uORL6ogNI5FsNtwnm81GIn1RmnWs6flmHgxdNyeJJHXMhufm5uYJ+CCcJZ5UsycERvLEa0shZNxjjtkwMbzDIKbhLPN8aYQkj39mBqXRluYxlYyEuaJdNByhmgcm8trymny/7kviXM8xRSf9eOK89zW7oZE5v+utpSToryCkgeRqbYz1loUTwlcm8slSCDS/l9xOpbbfvu3/tzyxZj/peyHBH0ukc0nq+HDrQU/G9B5sdU6scNJoGsgXSyF07JRM/flRFJGEryBR/Pg55YzmHpL8sERmFFvaJD+JIr8qip+4ZhYH81US+WEpH2DJLJe8kJ21JV9wzX7Ou7IPlpJ8BOOR8GAJSp3KVxqcWpo45/ClH5YoGa3xUJ58EKUr4xA/tHnOaxAJ07cUz2vxCM/32ZBIyWf2YNZMNH1L+bUtlO23PJQcQdy2B/NM9MFyrxYJD0LZ2ZOHtjndtoIZrV3IPmS8WeMJ75wNt+x2eJnXDvywvLdgJXy+c46GVtj5+ryV8tqeP5ZWwufWR1rODZpkF/yzZIFafyAObXO2boU77L/lwvA5Jx8s2Cz9mZd2g5fDnl0JzpFciD5bRjeGLdnIrEVtlg+Q35a1gxC6uoceYEse757flpHaI/17CdTTH/GFfz5bkyW/LeO1ppFEzkgaTch3+vn1YzngkyXfpSF8bZjWg2oJCaZxAGE0yy3PRf8t4/2bbt2UEEHAh1gyji0Ht5YfegG/LPkujS3hvTR5Wm0a+CV9hCXjtp3+QvbVkgcTbjS7CQOT6DY3ILTfcLQXeoLvlvTOhvDq6OgVfiGSOJTzPJT+WTLYIwwHcdtd0ck3UfLRcqSm81a9gwvcb0uuGY8P4sgk+V3wTFj2NbPYk4IdszbJLVmaEcs788QzEsVEiCOXxJNyVizZ81+C/blw6lQUArNjSUQJTJFLzpblFToPz3HhzIrlyfYwx5POaU8OzIzlw4vTVKrtVGyn8ANNGQVmxzL1QO59+txJbZ+05zHtk+1U58OnXt9xpixFJPc+Hmx9m99++HC7/W3r4CNxnCXL+Q65H0eyLIs9jCjLRHGmLG1PDSRBQEgQJHw4w5YDZtEyvPD/bim5ZBn6OSylX5bCT2GJ/uuOZe/nsBS8tBRfAFdIDrds2i3P0cSx/ApcwUBDLS+4ZWRBECYt8ZBLls+GWkrit5OB5foneeIST34BrnApDS+f8/U2texs9aSJE27cB67wnyQaPu8/dlLb7XYn9e8eCkwKqgeBK3zRR0iI4sXW5z+Pz2UpMHnCu8Ad7ndDIzQEUeyJMgpMjqhfApfo6qNXQ+Y/cYV3vwCX+NfrkBDwBJTorgHXUp4WvZFMvr4ErnHZNbzQFELd7n0A3Atm10TuS6J09xK4yGW9mxRdl0x062vARYJ/1OsmktyURKF0vf4VuMr9er1uCO5lXRKTuMdL4DJfcKfpJEKSO8kWdNzfH8B1vtbT6bqeFJAgTWjKn36EjHQ9XX8TBASXk4490wkjGRIQQbgliCD1TD2Nqf8WBF4QvExjiKlhmsnbY5qmgQ2J47PnwCueP+s7cnRdT3DSDnhLDm+Hs+0dwedv2LfrnKuqzpFYja0GL+gy6anob2+eJXT8ZydN9W4Ip5549o83L/aDYCqsrd2fjP21IPjFL34xayitmPoDn52S5CaEi2AyMhEIV8E0yEPMhBHZgRhl1i0XISYDpoBagnAZzLolALEKmEVLTclkFM0KpqLwwFpXONqocyrYYZbso7EKb8fOrcRWFJW93K6oCyWIaeQ12hMOSIF1mq9CzGY5Y/MpNCCmVFBspV3u9xCvLhW5ZWwxQnot2GTodbhIX4pLYHwK0CLvrJ4laFFWeW3x1hR1FXKYpdaAFgMZJQq/Y065xeLBKQysW04hawVdhpzByliFVyy1O5DBNSuWJCe8AsaiDB3kueUSdLBsxZ1T5uIOS7UEHcRoJIcQ18AYVCBhp1AuQoIysFQhoVgu4Ggz8QyLa7mwaIWtZfVQHViyoW+u5gpFeqQOctYo58gISrlygw5+7KUj3B+r2qLhYZYs3zm1PxSSv6pKwxZpkeIYfEeJaFT6PSwNLOlYlP65HMu5QueIxiZSDgBtmYXlRjJhiGGTg2huasQyplZZZ3zeryh3WPoszYhWsX8VVVKIbcReblU69iI7wTou0lK4kRgP+uBTCq1xItbQ7LM3Rox2nHt2iyaAwOajlrdXtkbMaRpWnJa0vzEtc4CxSr43Ry0d/kukXYXWl918hVxpOSYQzUYFMEgCyJWowi2tASyOaZkf0zJPLAtDLJcc2VCdlmHLMvIjlkWV5aZBMz7ScoVUKWtNJ26lxbM2WCbVPF9MWVrDoPhjljwUZVrJhVGWBbVkC30B8vkLY7ZkFMEK5DVJB1N2wRKWNVVVViF1GG3JzFYV3Lo8WK/pylnAPWSWB2PepF1pmlYpUWM3LGGkWoUUcJ2lBgnRajUOKS0WODhXZD3M826jDaxLZ4TqgiVn5TpLMsmctOgyy+F1zCkBdy1jYGCZGWbJDpyWfHPnpe04V9KYZdwVy6pibUEZbdO+RmWsEsk0rgwLxO5Axo4CGK1NyCiog9KsqlZfGVJZjVvsPbnKarFUWlxdAZR8qRoDYKVaKgOLVrW0BCiVcrFRKq5m6H7PLq9WcQ/8xzI9t1gtLues7au6ww5jxWIMEJSdagGMv/eomqYCC3qsaoDhfMdas13Tdg5cQVXtb4adVsH4lpOgVl25E/PYMkd/QU3NMj9JJPP8nsJzKrQCbkllcVDAKpgK5f7GcEsU223XlFAUcFvyXHKGqUBCowJmmlw4vrkT82hO/g+BDHfFKU++ngAAAABJRU5ErkJggg==;" parent="1" vertex="1">
          <mxGeometry x="392" y="42" width="61.11" height="50" as="geometry" />
        </mxCell>
        <mxCell id="RnUKZIb-PjD8DTA2BIBd-59" value="" style="edgeStyle=orthogonalEdgeStyle;rounded=0;orthogonalLoop=1;jettySize=auto;html=1;startArrow=classic;startFill=1;endArrow=none;endFill=0;" parent="1" source="RnUKZIb-PjD8DTA2BIBd-55" target="RZWfU97EguXZhOJXuSMn-22" edge="1">
          <mxGeometry relative="1" as="geometry">
            <mxPoint x="258" y="310" as="targetPoint" />
          </mxGeometry>
        </mxCell>
        <mxCell id="RnUKZIb-PjD8DTA2BIBd-60" value="" style="edgeStyle=orthogonalEdgeStyle;rounded=0;orthogonalLoop=1;jettySize=auto;html=1;startArrow=none;startFill=0;entryX=0;entryY=0.5;entryDx=0;entryDy=0;exitX=0;exitY=0.5;exitDx=0;exitDy=0;fillColor=#e1d5e7;strokeColor=#9673a6;endArrow=classic;endFill=1;" parent="1" source="RnUKZIb-PjD8DTA2BIBd-50" target="RnUKZIb-PjD8DTA2BIBd-28" edge="1">
          <mxGeometry relative="1" as="geometry">
            <Array as="points">
              <mxPoint x="43" y="564" />
              <mxPoint x="43" y="944" />
            </Array>
          </mxGeometry>
        </mxCell>
        <mxCell id="RnUKZIb-PjD8DTA2BIBd-28" value="&lt;br&gt;&lt;div&gt;&lt;br&gt;&lt;/div&gt;&lt;div&gt;&lt;br&gt;&lt;/div&gt;&lt;div&gt;admin-db&lt;/div&gt;" style="aspect=fixed;perimeter=ellipsePerimeter;html=1;align=center;shadow=0;dashed=0;spacingTop=3;image;image=img/lib/active_directory/database.svg;labelBackgroundColor=none;labelPosition=center;verticalLabelPosition=middle;verticalAlign=middle;fontColor=#FF66FF;" parent="1" vertex="1">
          <mxGeometry x="281" y="925.5" width="50" height="37" as="geometry" />
        </mxCell>
        <mxCell id="RnUKZIb-PjD8DTA2BIBd-30" value="&lt;br&gt;&lt;div&gt;&lt;br&gt;&lt;/div&gt;&lt;div&gt;&lt;br&gt;&lt;/div&gt;&lt;div&gt;meta-db&lt;/div&gt;" style="aspect=fixed;perimeter=ellipsePerimeter;html=1;align=center;shadow=0;dashed=0;spacingTop=3;image;image=img/lib/active_directory/database.svg;labelPosition=center;verticalLabelPosition=middle;verticalAlign=middle;labelBackgroundColor=none;fontColor=#46A652;" parent="1" vertex="1">
          <mxGeometry x="468.5" y="925.5" width="50" height="37" as="geometry" />
        </mxCell>
        <mxCell id="RnUKZIb-PjD8DTA2BIBd-67" style="edgeStyle=orthogonalEdgeStyle;rounded=0;orthogonalLoop=1;jettySize=auto;html=1;startArrow=classic;startFill=1;exitX=0.5;exitY=0;exitDx=0;exitDy=0;endArrow=none;endFill=0;" parent="1" source="RnUKZIb-PjD8DTA2BIBd-65" target="RZWfU97EguXZhOJXuSMn-22" edge="1">
          <mxGeometry relative="1" as="geometry" />
        </mxCell>
        <mxCell id="RnUKZIb-PjD8DTA2BIBd-65" value="443" style="fontStyle=0;labelPosition=center;verticalLabelPosition=middle;align=center;verticalAlign=middle;spacingLeft=2;rounded=1;shadow=1;glass=0;labelBackgroundColor=none;sketch=0;gradientColor=#ffffff;gradientDirection=north;" parent="1" vertex="1">
          <mxGeometry x="291" y="615" width="30" height="30" as="geometry" />
        </mxCell>
        <mxCell id="RnUKZIb-PjD8DTA2BIBd-66" style="edgeStyle=orthogonalEdgeStyle;rounded=0;orthogonalLoop=1;jettySize=auto;html=1;startArrow=classic;startFill=1;exitX=1;exitY=0.5;exitDx=0;exitDy=0;entryX=0.5;entryY=1;entryDx=0;entryDy=0;endArrow=none;endFill=0;" parent="1" source="RnUKZIb-PjD8DTA2BIBd-39" target="RnUKZIb-PjD8DTA2BIBd-65" edge="1">
          <mxGeometry relative="1" as="geometry" />
        </mxCell>
        <mxCell id="RnUKZIb-PjD8DTA2BIBd-69" style="edgeStyle=orthogonalEdgeStyle;rounded=0;orthogonalLoop=1;jettySize=auto;html=1;entryX=1;entryY=0.5;entryDx=0;entryDy=0;startArrow=none;startFill=0;endArrow=none;endFill=0;" parent="1" source="RnUKZIb-PjD8DTA2BIBd-68" target="RnUKZIb-PjD8DTA2BIBd-28" edge="1">
          <mxGeometry relative="1" as="geometry" />
        </mxCell>
        <mxCell id="RnUKZIb-PjD8DTA2BIBd-70" style="edgeStyle=orthogonalEdgeStyle;rounded=0;orthogonalLoop=1;jettySize=auto;html=1;startArrow=none;startFill=0;endArrow=none;endFill=0;" parent="1" source="RnUKZIb-PjD8DTA2BIBd-68" target="RnUKZIb-PjD8DTA2BIBd-30" edge="1">
          <mxGeometry relative="1" as="geometry" />
        </mxCell>
        <mxCell id="RnUKZIb-PjD8DTA2BIBd-68" value="" style="sketch=0;outlineConnect=0;fontColor=#232F3E;gradientColor=none;fillColor=#2E27AD;strokeColor=none;dashed=0;verticalLabelPosition=bottom;verticalAlign=top;align=center;html=1;fontSize=12;fontStyle=0;aspect=fixed;pointerEvents=1;shape=mxgraph.aws4.rds_instance;rounded=1;shadow=1;glass=0;labelBackgroundColor=none;" parent="1" vertex="1">
          <mxGeometry x="363" y="905" width="78" height="78" as="geometry" />
        </mxCell>
        <mxCell id="RnUKZIb-PjD8DTA2BIBd-86" style="edgeStyle=orthogonalEdgeStyle;rounded=0;orthogonalLoop=1;jettySize=auto;html=1;startArrow=classic;startFill=1;endArrow=none;endFill=0;exitX=0;exitY=0.5;exitDx=0;exitDy=0;" parent="1" source="RnUKZIb-PjD8DTA2BIBd-84" target="RZWfU97EguXZhOJXuSMn-22" edge="1">
          <mxGeometry relative="1" as="geometry" />
        </mxCell>
        <mxCell id="RnUKZIb-PjD8DTA2BIBd-84" value="443" style="fontStyle=0;labelPosition=center;verticalLabelPosition=middle;align=center;verticalAlign=middle;spacingLeft=2;rounded=1;shadow=1;glass=0;labelBackgroundColor=none;sketch=0;gradientColor=#ffffff;gradientDirection=north;" parent="1" vertex="1">
          <mxGeometry x="392" y="419.5" width="30" height="30" as="geometry" />
        </mxCell>
        <mxCell id="RnUKZIb-PjD8DTA2BIBd-85" value="" style="rounded=0;orthogonalLoop=1;jettySize=auto;html=1;startArrow=classic;startFill=1;endArrow=none;endFill=0;" parent="1" source="RnUKZIb-PjD8DTA2BIBd-36" target="RnUKZIb-PjD8DTA2BIBd-84" edge="1">
          <mxGeometry relative="1" as="geometry" />
        </mxCell>
        <mxCell id="RnUKZIb-PjD8DTA2BIBd-87" style="edgeStyle=orthogonalEdgeStyle;rounded=0;orthogonalLoop=1;jettySize=auto;html=1;entryX=1;entryY=1;entryDx=0;entryDy=0;startArrow=none;startFill=0;endArrow=classic;endFill=1;exitX=1;exitY=0.5;exitDx=0;exitDy=0;fillColor=#d5e8d4;strokeColor=#82b366;" parent="1" source="RnUKZIb-PjD8DTA2BIBd-6" target="RnUKZIb-PjD8DTA2BIBd-30" edge="1">
          <mxGeometry relative="1" as="geometry">
            <Array as="points">
              <mxPoint x="748" y="810" />
              <mxPoint x="748" y="995" />
              <mxPoint x="511" y="995" />
            </Array>
          </mxGeometry>
        </mxCell>
        <mxCell id="RnUKZIb-PjD8DTA2BIBd-88" style="rounded=0;orthogonalLoop=1;jettySize=auto;html=1;entryX=0.25;entryY=0;entryDx=0;entryDy=0;startArrow=none;startFill=0;endArrow=classic;endFill=1;fillColor=#d5e8d4;strokeColor=#82b366;" parent="1" source="RnUKZIb-PjD8DTA2BIBd-49" target="RnUKZIb-PjD8DTA2BIBd-30" edge="1">
          <mxGeometry relative="1" as="geometry" />
        </mxCell>
        <mxCell id="RnUKZIb-PjD8DTA2BIBd-89" style="rounded=0;orthogonalLoop=1;jettySize=auto;html=1;startArrow=none;startFill=0;endArrow=classic;endFill=1;fillColor=#e1d5e7;strokeColor=#9673a6;" parent="1" source="RnUKZIb-PjD8DTA2BIBd-49" edge="1">
          <mxGeometry relative="1" as="geometry">
            <mxPoint x="306" y="925" as="targetPoint" />
          </mxGeometry>
        </mxCell>
        <mxCell id="RnUKZIb-PjD8DTA2BIBd-92" style="rounded=0;orthogonalLoop=1;jettySize=auto;html=1;startArrow=none;startFill=0;endArrow=classic;endFill=1;fillColor=#e1d5e7;strokeColor=#9673a6;entryX=1;entryY=0;entryDx=0;entryDy=0;" parent="1" source="RnUKZIb-PjD8DTA2BIBd-12" target="RnUKZIb-PjD8DTA2BIBd-28" edge="1">
          <mxGeometry relative="1" as="geometry">
            <mxPoint x="313" y="925" as="targetPoint" />
          </mxGeometry>
        </mxCell>
        <mxCell id="RnUKZIb-PjD8DTA2BIBd-93" style="rounded=0;orthogonalLoop=1;jettySize=auto;html=1;entryX=0.5;entryY=1;entryDx=0;entryDy=0;entryPerimeter=0;startArrow=none;startFill=0;endArrow=classic;endFill=1;exitX=0.5;exitY=0;exitDx=0;exitDy=0;" parent="1" source="RnUKZIb-PjD8DTA2BIBd-6" target="RnUKZIb-PjD8DTA2BIBd-19" edge="1">
          <mxGeometry relative="1" as="geometry" />
        </mxCell>
        <mxCell id="RnUKZIb-PjD8DTA2BIBd-94" style="rounded=0;orthogonalLoop=1;jettySize=auto;html=1;entryX=0.5;entryY=1;entryDx=0;entryDy=0;entryPerimeter=0;startArrow=none;startFill=0;endArrow=classic;endFill=1;exitX=0.5;exitY=0;exitDx=0;exitDy=0;" parent="1" source="RnUKZIb-PjD8DTA2BIBd-10" target="RnUKZIb-PjD8DTA2BIBd-17" edge="1">
          <mxGeometry relative="1" as="geometry">
            <mxPoint x="703" y="737.5294117647059" as="sourcePoint" />
            <mxPoint x="756" y="203.9999999999999" as="targetPoint" />
          </mxGeometry>
        </mxCell>
        <mxCell id="RnUKZIb-PjD8DTA2BIBd-95" style="rounded=0;orthogonalLoop=1;jettySize=auto;html=1;startArrow=none;startFill=0;endArrow=classic;endFill=1;" parent="1" source="RnUKZIb-PjD8DTA2BIBd-10" target="RnUKZIb-PjD8DTA2BIBd-18" edge="1">
          <mxGeometry relative="1" as="geometry" />
        </mxCell>
        <mxCell id="RnUKZIb-PjD8DTA2BIBd-97" style="rounded=0;orthogonalLoop=1;jettySize=auto;html=1;startArrow=none;startFill=0;endArrow=classic;endFill=1;" parent="1" source="RnUKZIb-PjD8DTA2BIBd-49" target="RnUKZIb-PjD8DTA2BIBd-21" edge="1">
          <mxGeometry relative="1" as="geometry" />
        </mxCell>
        <mxCell id="RnUKZIb-PjD8DTA2BIBd-98" style="rounded=0;orthogonalLoop=1;jettySize=auto;html=1;entryX=1;entryY=0.5;entryDx=0;entryDy=0;startArrow=none;startFill=0;endArrow=classic;endFill=1;" parent="1" source="RnUKZIb-PjD8DTA2BIBd-49" target="RnUKZIb-PjD8DTA2BIBd-75" edge="1">
          <mxGeometry relative="1" as="geometry" />
        </mxCell>
        <mxCell id="RnUKZIb-PjD8DTA2BIBd-99" style="rounded=0;orthogonalLoop=1;jettySize=auto;html=1;startArrow=none;startFill=0;endArrow=classic;endFill=1;" parent="1" source="RnUKZIb-PjD8DTA2BIBd-15" target="RnUKZIb-PjD8DTA2BIBd-16" edge="1">
          <mxGeometry relative="1" as="geometry" />
        </mxCell>
        <mxCell id="RnUKZIb-PjD8DTA2BIBd-105" style="edgeStyle=orthogonalEdgeStyle;rounded=0;orthogonalLoop=1;jettySize=auto;html=1;startArrow=none;startFill=0;endArrow=classic;endFill=1;exitX=1;exitY=0.25;exitDx=0;exitDy=0;fillColor=#e1d5e7;strokeColor=#9673a6;entryX=1;entryY=1;entryDx=0;entryDy=0;" parent="1" source="RnUKZIb-PjD8DTA2BIBd-6" target="RnUKZIb-PjD8DTA2BIBd-28" edge="1">
          <mxGeometry relative="1" as="geometry">
            <mxPoint x="306" y="957" as="targetPoint" />
            <Array as="points">
              <mxPoint x="773" y="799" />
              <mxPoint x="773" y="1005" />
              <mxPoint x="324" y="1005" />
            </Array>
          </mxGeometry>
        </mxCell>
        <mxCell id="RnUKZIb-PjD8DTA2BIBd-107" style="rounded=0;orthogonalLoop=1;jettySize=auto;html=1;startArrow=none;startFill=0;endArrow=classic;endFill=1;edgeStyle=orthogonalEdgeStyle;fillColor=#e1d5e7;strokeColor=#9673a6;entryX=0;entryY=1;entryDx=0;entryDy=0;" parent="1" target="RnUKZIb-PjD8DTA2BIBd-28" edge="1">
          <mxGeometry relative="1" as="geometry">
            <mxPoint x="703" y="725" as="sourcePoint" />
            <mxPoint x="306" y="952" as="targetPoint" />
            <Array as="points">
              <mxPoint x="793" y="725" />
              <mxPoint x="793" y="1025" />
              <mxPoint x="288" y="1025" />
            </Array>
          </mxGeometry>
        </mxCell>
        <mxCell id="RnUKZIb-PjD8DTA2BIBd-109" style="rounded=0;orthogonalLoop=1;jettySize=auto;html=1;startArrow=none;startFill=0;endArrow=classic;endFill=1;" parent="1" source="RnUKZIb-PjD8DTA2BIBd-108" target="RZWfU97EguXZhOJXuSMn-22" edge="1">
          <mxGeometry relative="1" as="geometry" />
        </mxCell>
        <mxCell id="RnUKZIb-PjD8DTA2BIBd-108" value="op-staff" style="sketch=0;outlineConnect=0;fontColor=#232F3E;gradientColor=none;strokeColor=#232F3E;fillColor=#ffffff;dashed=0;verticalLabelPosition=bottom;verticalAlign=top;align=center;html=1;fontSize=12;fontStyle=0;aspect=fixed;shape=mxgraph.aws4.resourceIcon;resIcon=mxgraph.aws4.user;" parent="1" vertex="1">
          <mxGeometry x="276" y="32" width="60" height="60" as="geometry" />
        </mxCell>
        <mxCell id="RnUKZIb-PjD8DTA2BIBd-55" value="443" style="fontStyle=0;labelPosition=center;verticalLabelPosition=middle;align=center;verticalAlign=middle;spacingLeft=2;rounded=1;shadow=1;glass=0;labelBackgroundColor=none;sketch=0;gradientColor=#ffffff;gradientDirection=north;" parent="1" vertex="1">
          <mxGeometry x="263" y="400.5" width="30" height="30" as="geometry" />
        </mxCell>
        <mxCell id="RnUKZIb-PjD8DTA2BIBd-58" value="" style="edgeStyle=orthogonalEdgeStyle;rounded=0;orthogonalLoop=1;jettySize=auto;html=1;startArrow=classic;startFill=1;endArrow=none;endFill=0;" parent="1" source="RnUKZIb-PjD8DTA2BIBd-32" target="RnUKZIb-PjD8DTA2BIBd-55" edge="1">
          <mxGeometry relative="1" as="geometry" />
        </mxCell>
        <mxCell id="RnUKZIb-PjD8DTA2BIBd-113" style="edgeStyle=orthogonalEdgeStyle;rounded=0;orthogonalLoop=1;jettySize=auto;html=1;startArrow=none;startFill=0;endArrow=classic;endFill=1;exitX=1;exitY=0.5;exitDx=0;exitDy=0;fillColor=#d5e8d4;strokeColor=#82b366;" parent="1" source="RnUKZIb-PjD8DTA2BIBd-10" edge="1">
          <mxGeometry relative="1" as="geometry">
            <Array as="points">
              <mxPoint x="783" y="733" />
              <mxPoint x="783" y="1015" />
              <mxPoint x="480" y="1015" />
              <mxPoint x="480" y="957" />
            </Array>
            <mxPoint x="480" y="957" as="targetPoint" />
          </mxGeometry>
        </mxCell>
        <mxCell id="Z8Iofc_2LT_SBN_8rFr_-2" value="" style="edgeStyle=none;rounded=0;orthogonalLoop=1;jettySize=auto;html=1;fontColor=#46A652;startArrow=none;startFill=0;endArrow=classic;endFill=1;" edge="1" parent="1" source="Z8Iofc_2LT_SBN_8rFr_-1" target="RZWfU97EguXZhOJXuSMn-23">
          <mxGeometry relative="1" as="geometry" />
        </mxCell>
        <mxCell id="Z8Iofc_2LT_SBN_8rFr_-1" value="Subnet:ACL" style="shape=mxgraph.ibm.box;prType=subnet;fontStyle=0;verticalAlign=top;align=left;spacingLeft=32;spacingTop=4;fillColor=#E6F0E2;rounded=0;whiteSpace=wrap;html=1;strokeColor=#00882B;strokeWidth=1;dashed=0;container=1;spacing=-4;collapsible=0;expand=0;recursiveResize=0;shadow=1;glass=0;labelBackgroundColor=none;sketch=0;fontColor=#46A652;" vertex="1" parent="1">
          <mxGeometry x="140" y="52" width="100" height="20" as="geometry" />
        </mxCell>
        <mxCell id="Z8Iofc_2LT_SBN_8rFr_-3" style="rounded=0;orthogonalLoop=1;jettySize=auto;html=1;entryX=0.75;entryY=0;entryDx=0;entryDy=0;startArrow=none;startFill=0;endArrow=classic;endFill=1;fillColor=#d5e8d4;strokeColor=#82b366;exitX=0.5;exitY=1;exitDx=0;exitDy=0;" edge="1" parent="1" source="RnUKZIb-PjD8DTA2BIBd-52" target="RnUKZIb-PjD8DTA2BIBd-30">
          <mxGeometry relative="1" as="geometry">
            <mxPoint x="486.18493150684935" y="619.5" as="sourcePoint" />
            <mxPoint x="503.5" y="935.5" as="targetPoint" />
          </mxGeometry>
        </mxCell>
        <mxCell id="Z8Iofc_2LT_SBN_8rFr_-7" value="" style="dashed=0;html=1;shape=mxgraph.aws3.cloud;fillColor=#F58536;gradientColor=none;dashed=0;rounded=1;shadow=1;glass=0;labelBackgroundColor=none;sketch=0;fontColor=#46A652;" vertex="1" parent="1">
          <mxGeometry x="63" y="152" width="52" height="36" as="geometry" />
        </mxCell>
        <mxCell id="Z8Iofc_2LT_SBN_8rFr_-8" value="" style="rounded=0;orthogonalLoop=1;jettySize=auto;html=1;fontColor=#46A652;startArrow=none;startFill=0;endArrow=classic;endFill=1;edgeStyle=orthogonalEdgeStyle;" edge="1" parent="1" target="RnUKZIb-PjD8DTA2BIBd-68">
          <mxGeometry relative="1" as="geometry">
            <mxPoint x="179" y="1040" as="sourcePoint" />
            <mxPoint x="243.18041237113403" y="900" as="targetPoint" />
            <Array as="points">
              <mxPoint x="179" y="1040" />
              <mxPoint x="402" y="1040" />
            </Array>
          </mxGeometry>
        </mxCell>
        <mxCell id="Z8Iofc_2LT_SBN_8rFr_-9" value="" style="rounded=0;orthogonalLoop=1;jettySize=auto;html=1;fontColor=#46A652;startArrow=none;startFill=0;endArrow=classic;endFill=1;edgeStyle=orthogonalEdgeStyle;" edge="1" parent="1" source="RnUKZIb-PjD8DTA2BIBd-22" target="RZWfU97EguXZhOJXuSMn-3">
          <mxGeometry relative="1" as="geometry">
            <mxPoint x="189" y="1050" as="sourcePoint" />
            <mxPoint x="412" y="992.9025044316168" as="targetPoint" />
            <Array as="points">
              <mxPoint x="155" y="910" />
              <mxPoint x="155" y="910" />
            </Array>
          </mxGeometry>
        </mxCell>
      </root>
    </mxGraphModel>
  </diagram>
</mxfile>
